<?xml version="1.0" encoding="utf-8"?>
<!DOCTYPE svg PUBLIC "-//W3C//DTD SVG 1.1//EN" "http://www.w3.org/Graphics/SVG/1.1/DTD/svg11.dtd">
<svg version="1.1" id="Layer_1" xmlns="http://www.w3.org/2000/svg" xmlns:xlink="http://www.w3.org/1999/xlink" x="0px" y="0px"
	 width="324.3px" height="315.5px" viewBox="0 0 324.3 315.5" enable-background="new 0 0 324.3 315.5" xml:space="preserve">
<rect x="217.4" y="265" fill="#FFFFFF" width="109.9" height="50.5"/>
<g id="Background">
	<circle fill="#FFFFFF" cx="217.4" cy="87" r="228.5"/>
</g>
<g id="Circles">
	<circle fill="#ABABAB" cx="217.4" cy="87" r="216.7"/>
	<circle fill="#FFFFFF" cx="212" cy="81.6" r="204.3"/>
</g>
<g id="Yellow">
	
		<radialGradient id="SVGID_1_" cx="184.1816" cy="329.9099" r="284.2068" gradientTransform="matrix(1 0 0 -1 0 316)" gradientUnits="userSpaceOnUse">
		<stop  offset="0" style="stop-color:#FDE793"/>
		<stop  offset="0.2584" style="stop-color:#F3B900"/>
		<stop  offset="0.6854" style="stop-color:#ED9404"/>
		<stop  offset="1" style="stop-color:#BA6F04"/>
	</radialGradient>
	<path fill="url(#SVGID_1_)" d="M397.5,83.2c0,101.6-82.3,183.9-183.9,183.9S29.7,184.8,29.7,83.2c0-101.6,82.3-183.9,183.9-183.9
		C315.2-100.7,397.5-18.3,397.5,83.2z"/>
	<path fill="#835819" d="M154.1,257c32.4,7,37.4-20.2,36.9-33.2c-1.1-33.2-11.6-47-43.6-54.4c-34.7-8-31.8-0.1-64.9-3
		c-37.5-2.5-35.9-58.7,7.1-55.6c22.6,0.7,23.6,16,51.8,13.1c35.9-3.6,30.4-25.3,17.2-48.3c-7.7-13.4-29.4-26.8-37.1-40.2
		c-19.8-34.6,35.5-71.4,53-35.4c7.7,13.4,4.8,36.2,11.8,50C196.9,71,210,83.9,219.3,83.5c9.3,0.4,19.5-12.9,30.2-33.9
		c7-13.8,10.8-33.2,18.5-46.6c17.4-36,71.9,1.7,52,36.3c-7.7,13.4-33.8,23.4-41.5,36.8c-13.2,23-17.2,44.2,18.6,47.8
		c28.1,2.9,29.2-12.5,51.8-13.1c43.1-3.1,43.2,57.4,5.7,60c-33.2,2.8-31.2-6.7-66.4-0.9c-54.6,8.9-48.8,83.8,9.2,74.6
		c1.9-0.3,2.8,0.1,2.8,0.9c-25.8,13.8-55.3,21.7-86.6,21.7c-21.4,0-41.9-3.7-60.9-10.4C153.1,256.8,153.6,256.9,154.1,257L154.1,257
		z"/>
</g>
<g id="Hand">
	<path fill="#FFFFFF" d="M146.3,254c33.8,10,39.6-19.3,39.1-32.2c-1.1-33.2-11.6-47-43.6-54.4c-34.7-8-31.8-0.1-64.9-3
		c-37.5-2.5-35.9-58.7,7.1-55.7c22.6,0.7,23.6,16,51.8,13.2c35.9-3.6,30.4-25.3,17.2-48.3c-7.7-13.4-29.4-26.8-37.1-40.2
		C95.9-1.2,147.4-35.1,164.9,0.9c7.7,13.4,11.5,32.8,18.5,46.6c10.7,20.9,20.9,34.3,30.2,33.9c9.3,0.4,19.6-13,30.2-33.9
		c7-13.8,10.8-33.2,18.5-46.6c17.4-36,69-2.1,49.1,32.5c-7.7,13.4-29.4,26.8-37.1,40.2c-13.2,23-18.7,44.7,17.2,48.3
		c28.1,2.9,29.2-12.5,51.8-13.2c43-3.1,44.6,53.1,7.1,55.7c-33.2,2.8-30.2-5.1-64.9,3c-32,7.4-42.5,21.2-43.6,54.4
		c-0.4,13,4.7,40.7,37,32.9c2.7-0.6,6.4-1.9,7.8-2.6c-13.7,7.5-29.1,17.8-71.8,17.8c-42.5,0-48.9-6.5-75.1-18
		C143.1,252.9,141.3,252.6,146.3,254z"/>
</g>
<g id="Fingers">
	<path fill="#C1C1C1" d="M127.4,3.8c-18.2,20.6,12.9,31.9,34.6,62.3C147,37.9,124.6,19.4,127.4,3.8L127.4,3.8z"/>
	<path fill="#C1C1C1" d="M61.8,134.6c2.5,27.3,32.1,12.5,69.1,17.5C100,143.7,71.3,147.4,61.8,134.6L61.8,134.6z"/>
	<path fill="#C1C1C1" d="M292.4,0.4c-26.6-7-22.7,25.9-40,58.9C270.8,33.3,277.1,5,292.4,0.4L292.4,0.4z"/>
	<path fill="#C1C1C1" d="M365.5,132.1c-9.9-25.6-34.3-3.3-71.2,2C326.2,133.8,352.9,122.4,365.5,132.1L365.5,132.1z"/>
</g>
</svg>
