<?xml version="1.0" encoding="utf-8"?>
<!-- Generator: Adobe Illustrator 28.0.0, SVG Export Plug-In . SVG Version: 6.00 Build 0)  -->
<svg version="1.1" id="Layer_1" xmlns="http://www.w3.org/2000/svg" xmlns:xlink="http://www.w3.org/1999/xlink" x="0px" y="0px"
	 width="196.3px" height="69.8px" viewBox="0 0 196.3 69.8" style="enable-background:new 0 0 196.3 69.8;" xml:space="preserve">
<style type="text/css">
	.st0{fill:#231F20;}
</style>
<g>
	<path class="st0" d="M18.4,56.9c0,1.3-0.2,2.4-0.7,3.4c-0.5,1-1.1,1.8-2,2.4c-0.8,0.7-1.8,1.1-2.9,1.5c-1.1,0.3-2.3,0.5-3.5,0.5
		c-0.9,0-1.6-0.1-2.4-0.2C6.2,64.4,5.6,64.2,5,64c-0.6-0.2-1-0.4-1.4-0.6S3,63,2.8,62.8c-0.2-0.2-0.3-0.4-0.4-0.7
		c-0.1-0.3-0.1-0.8-0.1-1.3c0-0.4,0-0.7,0-1c0-0.3,0.1-0.5,0.1-0.6c0.1-0.2,0.1-0.3,0.2-0.4c0.1-0.1,0.2-0.1,0.3-0.1
		c0.2,0,0.4,0.1,0.8,0.3c0.3,0.2,0.7,0.4,1.2,0.7s1.1,0.5,1.8,0.7c0.7,0.2,1.5,0.3,2.4,0.3c0.6,0,1.2-0.1,1.6-0.2
		c0.5-0.1,0.9-0.4,1.2-0.6c0.3-0.3,0.6-0.6,0.8-1c0.2-0.4,0.3-0.8,0.3-1.3c0-0.6-0.2-1-0.5-1.4c-0.3-0.4-0.7-0.8-1.2-1.1
		c-0.5-0.3-1-0.6-1.7-0.9c-0.6-0.3-1.3-0.6-1.9-0.9s-1.3-0.7-1.9-1c-0.6-0.4-1.2-0.9-1.7-1.4c-0.5-0.5-0.9-1.2-1.2-1.9
		c-0.3-0.7-0.5-1.6-0.5-2.6c0-1.2,0.2-2.2,0.7-3.1c0.4-0.9,1-1.6,1.8-2.2c0.7-0.6,1.6-1,2.6-1.3c1-0.3,2.1-0.4,3.2-0.4
		c0.6,0,1.2,0,1.8,0.1s1.1,0.2,1.6,0.4s1,0.3,1.4,0.5s0.7,0.3,0.8,0.5s0.2,0.2,0.3,0.3c0,0.1,0.1,0.2,0.1,0.4c0,0.1,0.1,0.3,0.1,0.6
		c0,0.2,0,0.5,0,0.8c0,0.4,0,0.7,0,0.9c0,0.3-0.1,0.5-0.1,0.6c0,0.2-0.1,0.3-0.2,0.4c-0.1,0.1-0.2,0.1-0.3,0.1s-0.4-0.1-0.7-0.3
		S15,44.2,14.6,44c-0.4-0.2-1-0.4-1.5-0.6c-0.6-0.2-1.2-0.3-1.9-0.3c-0.5,0-1,0.1-1.4,0.2c-0.4,0.1-0.7,0.3-1,0.6
		c-0.3,0.2-0.5,0.5-0.6,0.8c-0.1,0.3-0.2,0.7-0.2,1c0,0.5,0.1,1,0.4,1.4C8.6,47.6,9,48,9.5,48.3c0.5,0.3,1.1,0.6,1.7,0.9
		c0.6,0.3,1.3,0.6,1.9,0.9s1.3,0.7,1.9,1c0.6,0.4,1.2,0.9,1.7,1.4c0.5,0.5,0.9,1.2,1.2,1.9C18.3,55.1,18.4,55.9,18.4,56.9z"/>
	<path class="st0" d="M36.4,63.7c0,0.2-0.1,0.3-0.2,0.4c-0.1,0.1-0.3,0.2-0.6,0.2c-0.3,0-0.7,0.1-1.2,0.1c-0.6,0-1,0-1.2-0.1
		c-0.3,0-0.4-0.1-0.6-0.2c-0.1-0.1-0.2-0.2-0.2-0.4v-1.4c-0.7,0.7-1.5,1.3-2.4,1.8c-0.9,0.4-1.9,0.6-3,0.6c-0.9,0-1.7-0.1-2.5-0.4
		c-0.8-0.2-1.4-0.6-2-1c-0.6-0.5-1-1-1.3-1.7s-0.5-1.5-0.5-2.4c0-1,0.2-1.9,0.6-2.6c0.4-0.7,1-1.3,1.7-1.8c0.8-0.5,1.7-0.8,2.9-1.1
		s2.5-0.3,4-0.3h1.7v-1c0-0.5-0.1-1-0.2-1.4c-0.1-0.4-0.3-0.7-0.5-1c-0.2-0.3-0.6-0.5-1-0.6c-0.4-0.1-0.9-0.2-1.5-0.2
		c-0.8,0-1.5,0.1-2.1,0.3c-0.6,0.2-1.2,0.4-1.7,0.6s-0.9,0.4-1.2,0.6c-0.3,0.2-0.6,0.3-0.8,0.3c-0.1,0-0.3,0-0.4-0.1
		c-0.1-0.1-0.2-0.2-0.3-0.4c-0.1-0.2-0.1-0.4-0.2-0.6c0-0.2-0.1-0.5-0.1-0.8c0-0.4,0-0.7,0.1-0.9s0.2-0.4,0.4-0.6
		c0.2-0.2,0.5-0.4,0.9-0.6c0.4-0.2,1-0.4,1.6-0.6s1.2-0.3,2-0.5c0.7-0.1,1.4-0.2,2.2-0.2c1.3,0,2.5,0.1,3.4,0.4
		c0.9,0.3,1.7,0.7,2.3,1.2c0.6,0.5,1.1,1.2,1.3,2.1s0.4,1.9,0.4,3V63.7z M31.7,56.4h-1.8c-0.8,0-1.4,0.1-2,0.2s-1,0.3-1.3,0.5
		S26,57.6,25.9,58c-0.2,0.3-0.2,0.7-0.2,1.1c0,0.7,0.2,1.3,0.7,1.7c0.5,0.4,1.1,0.6,1.9,0.6c0.7,0,1.3-0.2,1.9-0.5
		c0.6-0.3,1.1-0.8,1.7-1.5V56.4z"/>
	<path class="st0" d="M46,63.7c0,0.1,0,0.2-0.1,0.3c-0.1,0.1-0.2,0.2-0.4,0.2s-0.4,0.1-0.7,0.1c-0.3,0-0.7,0-1.2,0s-0.9,0-1.2,0
		c-0.3,0-0.5-0.1-0.7-0.1c-0.2-0.1-0.3-0.1-0.4-0.2c-0.1-0.1-0.1-0.2-0.1-0.3v-25c0-0.1,0-0.2,0.1-0.3s0.2-0.2,0.4-0.3
		c0.2-0.1,0.4-0.1,0.7-0.2s0.7-0.1,1.2-0.1s0.9,0,1.2,0.1s0.5,0.1,0.7,0.2c0.2,0.1,0.3,0.2,0.4,0.3s0.1,0.2,0.1,0.3V63.7z"/>
	<path class="st0" d="M65.3,63.7c0,0.2-0.1,0.3-0.2,0.4c-0.1,0.1-0.3,0.2-0.6,0.2c-0.3,0-0.7,0.1-1.2,0.1c-0.6,0-1,0-1.2-0.1
		c-0.3,0-0.4-0.1-0.6-0.2c-0.1-0.1-0.2-0.2-0.2-0.4v-1.4c-0.7,0.7-1.5,1.3-2.4,1.8c-0.9,0.4-1.9,0.6-3,0.6c-0.9,0-1.7-0.1-2.5-0.4
		c-0.8-0.2-1.4-0.6-2-1c-0.6-0.5-1-1-1.3-1.7s-0.5-1.5-0.5-2.4c0-1,0.2-1.9,0.6-2.6c0.4-0.7,1-1.3,1.7-1.8c0.8-0.5,1.7-0.8,2.9-1.1
		s2.5-0.3,4-0.3h1.7v-1c0-0.5-0.1-1-0.2-1.4c-0.1-0.4-0.3-0.7-0.5-1c-0.2-0.3-0.6-0.5-1-0.6c-0.4-0.1-0.9-0.2-1.5-0.2
		c-0.8,0-1.5,0.1-2.1,0.3c-0.6,0.2-1.2,0.4-1.7,0.6s-0.9,0.4-1.2,0.6c-0.3,0.2-0.6,0.3-0.8,0.3c-0.1,0-0.3,0-0.4-0.1
		c-0.1-0.1-0.2-0.2-0.3-0.4c-0.1-0.2-0.1-0.4-0.2-0.6c0-0.2-0.1-0.5-0.1-0.8c0-0.4,0-0.7,0.1-0.9s0.2-0.4,0.4-0.6
		c0.2-0.2,0.5-0.4,0.9-0.6c0.4-0.2,1-0.4,1.6-0.6s1.2-0.3,2-0.5c0.7-0.1,1.4-0.2,2.2-0.2c1.3,0,2.5,0.1,3.4,0.4
		c0.9,0.3,1.7,0.7,2.3,1.2c0.6,0.5,1.1,1.2,1.3,2.1s0.4,1.9,0.4,3V63.7z M60.6,56.4h-1.8c-0.8,0-1.4,0.1-2,0.2s-1,0.3-1.3,0.5
		s-0.6,0.5-0.8,0.8c-0.2,0.3-0.2,0.7-0.2,1.1c0,0.7,0.2,1.3,0.7,1.7c0.5,0.4,1.1,0.6,1.9,0.6c0.7,0,1.3-0.2,1.9-0.5
		c0.6-0.3,1.1-0.8,1.7-1.5V56.4z"/>
	<path class="st0" d="M97.1,63.7c0,0.1,0,0.2-0.1,0.3c-0.1,0.1-0.2,0.2-0.4,0.2s-0.4,0.1-0.7,0.1c-0.3,0-0.7,0-1.2,0
		c-0.5,0-0.9,0-1.2,0c-0.3,0-0.5-0.1-0.7-0.1s-0.3-0.1-0.4-0.2c-0.1-0.1-0.1-0.2-0.1-0.3V53.6c0-0.6-0.1-1.1-0.2-1.6
		c-0.1-0.5-0.3-0.9-0.5-1.2c-0.2-0.3-0.5-0.6-0.8-0.8c-0.3-0.2-0.7-0.3-1.2-0.3c-0.6,0-1.1,0.2-1.7,0.7c-0.6,0.4-1.2,1.1-1.9,1.9
		v11.3c0,0.1,0,0.2-0.1,0.3c-0.1,0.1-0.2,0.2-0.4,0.2c-0.2,0.1-0.4,0.1-0.7,0.1c-0.3,0-0.7,0-1.1,0c-0.5,0-0.9,0-1.2,0
		c-0.3,0-0.5-0.1-0.7-0.1c-0.2-0.1-0.3-0.1-0.4-0.2c-0.1-0.1-0.1-0.2-0.1-0.3V53.6c0-0.6-0.1-1.1-0.2-1.6c-0.1-0.5-0.3-0.9-0.5-1.2
		c-0.2-0.3-0.5-0.6-0.8-0.8c-0.3-0.2-0.7-0.3-1.2-0.3c-0.6,0-1.2,0.2-1.8,0.7c-0.6,0.4-1.2,1.1-1.9,1.9v11.3c0,0.1,0,0.2-0.1,0.3
		c-0.1,0.1-0.2,0.2-0.4,0.2s-0.4,0.1-0.7,0.1c-0.3,0-0.7,0-1.2,0s-0.9,0-1.2,0c-0.3,0-0.5-0.1-0.7-0.1c-0.2-0.1-0.3-0.1-0.4-0.2
		c-0.1-0.1-0.1-0.2-0.1-0.3v-17c0-0.1,0-0.2,0.1-0.3c0.1-0.1,0.2-0.2,0.3-0.2s0.4-0.1,0.6-0.1c0.3,0,0.6,0,1,0c0.4,0,0.7,0,1,0
		c0.3,0,0.5,0.1,0.6,0.1s0.3,0.1,0.3,0.2c0.1,0.1,0.1,0.2,0.1,0.3v2c0.9-1,1.9-1.8,2.8-2.3c0.9-0.5,1.9-0.8,2.9-0.8
		c0.7,0,1.3,0.1,1.9,0.2c0.6,0.1,1.1,0.4,1.5,0.6c0.4,0.3,0.8,0.6,1.1,1s0.6,0.8,0.8,1.3c0.5-0.5,1-1,1.5-1.4s1-0.7,1.4-1
		c0.5-0.2,1-0.4,1.4-0.6c0.5-0.1,1-0.2,1.5-0.2c1.1,0,2.1,0.2,2.9,0.6s1.4,0.9,1.9,1.6c0.5,0.7,0.8,1.4,1,2.3
		c0.2,0.9,0.3,1.8,0.3,2.8V63.7z"/>
	<path class="st0" d="M116.3,63.7c0,0.2-0.1,0.3-0.2,0.4c-0.1,0.1-0.3,0.2-0.6,0.2c-0.3,0-0.7,0.1-1.2,0.1c-0.6,0-1,0-1.2-0.1
		c-0.3,0-0.4-0.1-0.6-0.2c-0.1-0.1-0.2-0.2-0.2-0.4v-1.4c-0.7,0.7-1.5,1.3-2.4,1.8s-1.9,0.6-3,0.6c-0.9,0-1.7-0.1-2.5-0.4
		c-0.8-0.2-1.4-0.6-2-1c-0.6-0.5-1-1-1.3-1.7s-0.5-1.5-0.5-2.4c0-1,0.2-1.9,0.6-2.6c0.4-0.7,1-1.3,1.7-1.8c0.8-0.5,1.7-0.8,2.9-1.1
		s2.5-0.3,4-0.3h1.7v-1c0-0.5-0.1-1-0.2-1.4c-0.1-0.4-0.3-0.7-0.5-1c-0.2-0.3-0.6-0.5-1-0.6c-0.4-0.1-0.9-0.2-1.5-0.2
		c-0.8,0-1.5,0.1-2.1,0.3s-1.2,0.4-1.7,0.6s-0.9,0.4-1.2,0.6c-0.3,0.2-0.6,0.3-0.8,0.3c-0.1,0-0.3,0-0.4-0.1
		c-0.1-0.1-0.2-0.2-0.3-0.4c-0.1-0.2-0.1-0.4-0.2-0.6c0-0.2-0.1-0.5-0.1-0.8c0-0.4,0-0.7,0.1-0.9c0.1-0.2,0.2-0.4,0.4-0.6
		c0.2-0.2,0.5-0.4,0.9-0.6c0.4-0.2,1-0.4,1.6-0.6c0.6-0.2,1.2-0.3,2-0.5c0.7-0.1,1.4-0.2,2.2-0.2c1.3,0,2.5,0.1,3.4,0.4
		c0.9,0.3,1.7,0.7,2.3,1.2c0.6,0.5,1.1,1.2,1.3,2.1s0.4,1.9,0.4,3V63.7z M111.6,56.4h-1.8c-0.8,0-1.4,0.1-2,0.2
		c-0.5,0.1-1,0.3-1.3,0.5c-0.3,0.2-0.6,0.5-0.8,0.8c-0.2,0.3-0.2,0.7-0.2,1.1c0,0.7,0.2,1.3,0.7,1.7s1.1,0.6,1.9,0.6
		c0.7,0,1.3-0.2,1.9-0.5s1.1-0.8,1.7-1.5V56.4z"/>
	<path class="st0" d="M137.3,63.7c0,0.1,0,0.2-0.1,0.3c-0.1,0.1-0.2,0.2-0.4,0.2s-0.4,0.1-0.7,0.1c-0.3,0-0.7,0-1.2,0
		c-0.5,0-0.9,0-1.2,0c-0.3,0-0.6-0.1-0.7-0.1c-0.2-0.1-0.3-0.1-0.4-0.2c-0.1-0.1-0.1-0.2-0.1-0.3V54c0-0.8-0.1-1.5-0.2-1.9
		c-0.1-0.5-0.3-0.9-0.5-1.2c-0.2-0.3-0.5-0.6-0.9-0.8c-0.4-0.2-0.8-0.3-1.3-0.3c-0.6,0-1.2,0.2-1.8,0.7c-0.6,0.4-1.3,1.1-1.9,1.9
		v11.3c0,0.1,0,0.2-0.1,0.3c-0.1,0.1-0.2,0.2-0.4,0.2c-0.2,0.1-0.4,0.1-0.7,0.1c-0.3,0-0.7,0-1.2,0s-0.9,0-1.2,0
		c-0.3,0-0.5-0.1-0.7-0.1c-0.2-0.1-0.3-0.1-0.4-0.2c-0.1-0.1-0.1-0.2-0.1-0.3v-17c0-0.1,0-0.2,0.1-0.3c0.1-0.1,0.2-0.2,0.3-0.2
		c0.2-0.1,0.4-0.1,0.6-0.1c0.3,0,0.6,0,1,0c0.4,0,0.7,0,1,0c0.3,0,0.5,0.1,0.6,0.1c0.1,0.1,0.3,0.1,0.3,0.2c0.1,0.1,0.1,0.2,0.1,0.3
		v2c0.9-1,1.9-1.8,2.9-2.3c1-0.5,2-0.8,3-0.8c1.2,0,2.1,0.2,2.9,0.6c0.8,0.4,1.4,0.9,1.9,1.6c0.5,0.7,0.8,1.4,1.1,2.3
		c0.2,0.9,0.3,1.9,0.3,3.2V63.7z"/>
	<path class="st0" d="M158.1,63.7c0,0.1,0,0.3-0.1,0.4c-0.1,0.1-0.2,0.2-0.3,0.2c-0.2,0.1-0.4,0.1-0.6,0.1c-0.3,0-0.6,0-1,0
		c-0.4,0-0.7,0-1,0s-0.5-0.1-0.6-0.1c-0.2-0.1-0.3-0.1-0.3-0.2c-0.1-0.1-0.1-0.2-0.1-0.4v-1.9c-0.9,0.9-1.8,1.7-2.8,2.2
		c-1,0.5-2,0.8-3.2,0.8c-1.3,0-2.4-0.2-3.3-0.8c-0.9-0.5-1.6-1.2-2.2-2c-0.6-0.9-1-1.8-1.2-3c-0.3-1.1-0.4-2.3-0.4-3.6
		c0-1.5,0.2-2.9,0.5-4.1c0.3-1.2,0.8-2.2,1.4-3.1s1.4-1.5,2.3-2c0.9-0.5,2-0.7,3.2-0.7c1,0,1.8,0.2,2.6,0.6c0.8,0.4,1.5,1,2.3,1.7
		v-9.2c0-0.1,0-0.2,0.1-0.3c0.1-0.1,0.2-0.2,0.4-0.3c0.2-0.1,0.4-0.1,0.7-0.2s0.7-0.1,1.2-0.1s0.9,0,1.2,0.1s0.5,0.1,0.7,0.2
		c0.2,0.1,0.3,0.2,0.4,0.3s0.1,0.2,0.1,0.3V63.7z M153.3,52.3c-0.7-0.9-1.3-1.5-2-2c-0.6-0.5-1.3-0.7-2-0.7c-0.6,0-1.2,0.2-1.6,0.5
		c-0.5,0.3-0.8,0.7-1.1,1.2c-0.3,0.5-0.5,1.1-0.6,1.7c-0.1,0.6-0.2,1.3-0.2,2c0,0.7,0.1,1.4,0.2,2.1s0.3,1.3,0.6,1.8
		c0.3,0.5,0.6,0.9,1,1.3s1,0.5,1.6,0.5c0.3,0,0.7,0,1-0.1c0.3-0.1,0.6-0.3,1-0.5c0.3-0.2,0.7-0.5,1-0.8c0.3-0.3,0.7-0.8,1.1-1.3
		V52.3z"/>
	<path class="st0" d="M178.6,54.7c0,0.6-0.1,1-0.4,1.3c-0.3,0.3-0.6,0.4-1.1,0.4h-10.3c0,0.7,0.1,1.4,0.3,2c0.2,0.6,0.4,1.1,0.8,1.5
		c0.4,0.4,0.9,0.7,1.4,0.9c0.6,0.2,1.3,0.3,2.1,0.3c0.8,0,1.6-0.1,2.2-0.2c0.6-0.1,1.2-0.3,1.6-0.4c0.5-0.1,0.8-0.3,1.2-0.4
		c0.3-0.1,0.6-0.2,0.7-0.2c0.1,0,0.2,0,0.3,0.1c0.1,0,0.1,0.1,0.2,0.2c0,0.1,0.1,0.3,0.1,0.5c0,0.2,0,0.5,0,0.8c0,0.3,0,0.5,0,0.7
		c0,0.2,0,0.4-0.1,0.5c0,0.1-0.1,0.3-0.1,0.4c-0.1,0.1-0.1,0.2-0.2,0.3c-0.1,0.1-0.3,0.2-0.7,0.4s-0.8,0.3-1.4,0.4
		c-0.6,0.1-1.2,0.3-2,0.4c-0.7,0.1-1.5,0.2-2.4,0.2c-1.5,0-2.8-0.2-4-0.6c-1.1-0.4-2.1-1-2.8-1.7s-1.3-1.8-1.7-2.9
		c-0.4-1.2-0.6-2.6-0.6-4.2c0-1.5,0.2-2.9,0.6-4.1c0.4-1.2,1-2.2,1.7-3.1c0.7-0.8,1.7-1.5,2.7-1.9c1.1-0.4,2.3-0.7,3.6-0.7
		c1.4,0,2.6,0.2,3.6,0.6c1,0.4,1.8,1,2.5,1.7c0.6,0.7,1.1,1.6,1.4,2.6s0.5,2.1,0.5,3.3V54.7z M173.9,53.3c0-1.3-0.2-2.4-0.8-3.2
		c-0.6-0.8-1.5-1.2-2.7-1.2c-0.6,0-1.1,0.1-1.6,0.3c-0.5,0.2-0.8,0.5-1.1,0.9c-0.3,0.4-0.5,0.8-0.7,1.4c-0.2,0.5-0.3,1.1-0.3,1.7
		H173.9z"/>
	<path class="st0" d="M193.4,48.3c0,0.5,0,0.8,0,1.1c0,0.3-0.1,0.5-0.1,0.7s-0.1,0.3-0.2,0.3c-0.1,0.1-0.2,0.1-0.3,0.1
		c-0.1,0-0.2,0-0.3-0.1c-0.1,0-0.3-0.1-0.4-0.1c-0.2-0.1-0.3-0.1-0.5-0.1c-0.2,0-0.4-0.1-0.6-0.1c-0.3,0-0.5,0.1-0.8,0.2
		c-0.3,0.1-0.5,0.3-0.8,0.5c-0.3,0.2-0.6,0.5-0.9,0.9c-0.3,0.4-0.6,0.9-1,1.4v10.6c0,0.1,0,0.2-0.1,0.3c-0.1,0.1-0.2,0.2-0.4,0.2
		c-0.2,0.1-0.4,0.1-0.7,0.1c-0.3,0-0.7,0-1.2,0s-0.9,0-1.2,0c-0.3,0-0.5-0.1-0.7-0.1c-0.2-0.1-0.3-0.1-0.4-0.2
		c-0.1-0.1-0.1-0.2-0.1-0.3v-17c0-0.1,0-0.2,0.1-0.3c0.1-0.1,0.2-0.2,0.3-0.2c0.2-0.1,0.4-0.1,0.6-0.1c0.3,0,0.6,0,1,0
		c0.4,0,0.7,0,1,0c0.3,0,0.5,0.1,0.6,0.1c0.1,0.1,0.3,0.1,0.3,0.2c0.1,0.1,0.1,0.2,0.1,0.3v2.1c0.4-0.6,0.9-1.2,1.3-1.6
		c0.4-0.4,0.8-0.7,1.1-1s0.7-0.4,1.1-0.5c0.4-0.1,0.7-0.1,1.1-0.1c0.2,0,0.3,0,0.5,0c0.2,0,0.4,0.1,0.6,0.1c0.2,0,0.4,0.1,0.5,0.2
		c0.2,0.1,0.3,0.1,0.3,0.2c0.1,0.1,0.1,0.1,0.2,0.2c0,0.1,0.1,0.2,0.1,0.3c0,0.1,0,0.3,0.1,0.6S193.4,47.8,193.4,48.3z"/>
</g>
<g>
	<path class="st0" d="M25.1,17.4c0,2-0.2,3.8-0.7,5.4s-1.2,3-2.1,4.1c-0.9,1.1-2.1,2-3.5,2.6c-1.4,0.6-3.1,0.9-4.9,0.9
		c-1.9,0-3.5-0.3-4.8-0.8c-1.4-0.6-2.5-1.4-3.4-2.4c-0.9-1.1-1.5-2.4-2-3.9S3,19.9,3,17.9c0-1.9,0.2-3.7,0.7-5.3s1.2-2.9,2.1-4
		C6.8,7.4,8,6.6,9.4,6S12.4,5,14.3,5c1.8,0,3.4,0.3,4.7,0.8s2.5,1.3,3.4,2.4c0.9,1,1.6,2.3,2,3.9C24.8,13.7,25.1,15.5,25.1,17.4z
		 M21.6,17.7c0-1.4-0.1-2.7-0.4-3.9c-0.2-1.2-0.7-2.2-1.2-3.1c-0.6-0.9-1.3-1.6-2.3-2.1s-2.2-0.7-3.6-0.7c-1.4,0-2.6,0.3-3.6,0.8
		c-1,0.5-1.7,1.2-2.3,2.1c-0.6,0.9-1,1.9-1.3,3.1c-0.3,1.2-0.4,2.4-0.4,3.7c0,1.4,0.1,2.8,0.4,4c0.2,1.2,0.6,2.3,1.2,3.2
		c0.6,0.9,1.3,1.6,2.3,2.1c1,0.5,2.2,0.7,3.6,0.7c1.4,0,2.6-0.3,3.6-0.8s1.8-1.3,2.4-2.2s1-2,1.3-3.2C21.5,20.3,21.6,19,21.6,17.7z"
		/>
	<path class="st0" d="M45.6,20.7c0,1.5-0.2,2.8-0.5,4c-0.3,1.2-0.8,2.2-1.4,3c-0.6,0.8-1.4,1.5-2.3,1.9c-0.9,0.5-2,0.7-3.2,0.7
		c-0.5,0-1-0.1-1.4-0.2S36,30,35.5,29.8c-0.4-0.2-0.8-0.5-1.2-0.8s-0.8-0.7-1.3-1.2v8.6c0,0.1,0,0.2-0.1,0.3s-0.1,0.1-0.2,0.2
		s-0.3,0.1-0.5,0.1s-0.5,0-0.8,0c-0.3,0-0.6,0-0.8,0s-0.4-0.1-0.5-0.1s-0.2-0.1-0.2-0.2c0-0.1-0.1-0.2-0.1-0.3V12.4
		c0-0.1,0-0.2,0.1-0.3s0.1-0.1,0.2-0.2s0.3-0.1,0.4-0.1c0.2,0,0.4,0,0.6,0c0.3,0,0.5,0,0.7,0c0.2,0,0.3,0.1,0.4,0.1s0.2,0.1,0.2,0.2
		c0,0.1,0.1,0.2,0.1,0.3v2.3c0.5-0.5,1-1,1.5-1.4s1-0.7,1.5-1c0.5-0.3,1-0.5,1.5-0.6c0.5-0.1,1.1-0.2,1.6-0.2c1.2,0,2.3,0.2,3.2,0.7
		s1.6,1.1,2.1,2c0.6,0.8,1,1.8,1.2,2.9C45.5,18.3,45.6,19.5,45.6,20.7z M42.4,21.1c0-0.9-0.1-1.7-0.2-2.5c-0.1-0.8-0.4-1.5-0.7-2.2
		c-0.3-0.6-0.8-1.1-1.3-1.5c-0.5-0.4-1.2-0.6-2.1-0.6c-0.4,0-0.8,0.1-1.2,0.2c-0.4,0.1-0.8,0.3-1.2,0.6c-0.4,0.3-0.8,0.6-1.3,1
		C34,16.5,33.5,17,33,17.6v6.8c0.9,1.1,1.7,1.9,2.5,2.4c0.8,0.6,1.6,0.8,2.5,0.8c0.8,0,1.5-0.2,2-0.6s1-0.9,1.4-1.5
		c0.4-0.6,0.6-1.3,0.8-2.1S42.4,21.9,42.4,21.1z"/>
	<path class="st0" d="M65,20.3c0,0.5-0.1,0.8-0.4,1.1c-0.2,0.2-0.5,0.3-0.9,0.3H52.5c0,1,0.1,1.8,0.3,2.6c0.2,0.8,0.5,1.4,1,2
		s1,1,1.7,1.3s1.6,0.4,2.6,0.4c0.8,0,1.5-0.1,2.2-0.2c0.6-0.1,1.2-0.3,1.7-0.4c0.5-0.2,0.8-0.3,1.1-0.4c0.3-0.1,0.5-0.2,0.7-0.2
		c0.1,0,0.2,0,0.2,0.1c0.1,0,0.1,0.1,0.2,0.2c0,0.1,0.1,0.2,0.1,0.4s0,0.4,0,0.6c0,0.2,0,0.3,0,0.4c0,0.1,0,0.2,0,0.3
		c0,0.1-0.1,0.2-0.1,0.3c0,0.1-0.1,0.1-0.2,0.2c-0.1,0.1-0.3,0.2-0.6,0.3c-0.3,0.2-0.8,0.3-1.3,0.5s-1.2,0.3-1.9,0.4
		s-1.5,0.2-2.3,0.2c-1.4,0-2.6-0.2-3.7-0.6c-1.1-0.4-2-1-2.7-1.8s-1.3-1.7-1.6-2.9s-0.6-2.5-0.6-4.1c0-1.5,0.2-2.8,0.6-4
		s0.9-2.2,1.6-3c0.7-0.8,1.6-1.4,2.6-1.9c1-0.4,2.2-0.7,3.4-0.7c1.3,0,2.5,0.2,3.4,0.6s1.7,1,2.3,1.7c0.6,0.7,1.1,1.6,1.3,2.6
		c0.3,1,0.4,2,0.4,3.2V20.3z M61.8,19.3c0-1.7-0.3-2.9-1.1-3.9C60,14.5,58.8,14,57.3,14c-0.8,0-1.5,0.1-2,0.4
		c-0.6,0.3-1.1,0.7-1.5,1.2c-0.4,0.5-0.7,1-0.9,1.7c-0.2,0.6-0.3,1.3-0.4,2H61.8z"/>
	<path class="st0" d="M84.5,29.6c0,0.1,0,0.2-0.1,0.3S84.3,30,84.2,30s-0.3,0.1-0.5,0.1s-0.5,0-0.8,0c-0.3,0-0.6,0-0.8,0
		s-0.4-0.1-0.5-0.1s-0.2-0.1-0.2-0.2s-0.1-0.2-0.1-0.3v-10c0-1-0.1-1.8-0.2-2.4s-0.4-1.1-0.7-1.5c-0.3-0.4-0.7-0.8-1.1-1
		c-0.5-0.2-1-0.3-1.6-0.3c-0.8,0-1.6,0.3-2.4,0.8s-1.6,1.4-2.5,2.5v12c0,0.1,0,0.2-0.1,0.3S72.7,30,72.6,30s-0.3,0.1-0.5,0.1
		s-0.5,0-0.8,0c-0.3,0-0.6,0-0.8,0s-0.4-0.1-0.5-0.1s-0.2-0.1-0.2-0.2c0-0.1-0.1-0.2-0.1-0.3V12.4c0-0.1,0-0.2,0.1-0.3
		c0-0.1,0.1-0.1,0.2-0.2c0.1-0.1,0.3-0.1,0.4-0.1c0.2,0,0.4,0,0.7,0c0.3,0,0.5,0,0.7,0c0.2,0,0.3,0.1,0.4,0.1
		c0.1,0.1,0.2,0.1,0.2,0.2c0,0.1,0.1,0.2,0.1,0.3v2.3c1-1.1,1.9-1.9,2.9-2.4c1-0.5,1.9-0.8,2.9-0.8c1.1,0,2.1,0.2,2.9,0.6
		c0.8,0.4,1.4,0.9,1.9,1.6s0.8,1.4,1,2.3c0.2,0.9,0.3,1.9,0.3,3.1V29.6z"/>
</g>
</svg>
