<?xml version="1.0" encoding="utf-8"?>
<!DOCTYPE svg PUBLIC "-//W3C//DTD SVG 1.1//EN" "http://www.w3.org/Graphics/SVG/1.1/DTD/svg11.dtd">
<svg version="1.1" id="Icon" xmlns="http://www.w3.org/2000/svg" xmlns:xlink="http://www.w3.org/1999/xlink" x="0px" y="0px"
	 width="16px" height="16px" viewBox="0 0 16 16" enable-background="new 0 0 16 16" xml:space="preserve">
<g>
	<path fill="#414141" d="M14.706,14.928h-1.189l-0.92-2.408H9.274l-0.873,2.408H7.294L10.335,7h1.137L14.706,14.928z M12.292,11.676
		l-1.4-3.668l-1.33,3.668H12.292z"/>
</g>
<g>
	<path fill="#414141" d="M5.98,5.989c-0.535,0.48-1.207,0.72-2.016,0.72c-0.277,0-0.534-0.039-0.771-0.12
		c-0.236-0.08-0.442-0.192-0.618-0.337S2.263,5.934,2.163,5.731s-0.149-0.43-0.149-0.68c0-1.344,1.154-2.016,3.463-2.016H5.98
		c0-0.246-0.008-0.465-0.023-0.656S5.891,2.027,5.805,1.896s-0.223-0.23-0.41-0.299S4.943,1.495,4.604,1.495
		c-0.906,0-1.375,0.326-1.406,0.979H2.166C2.24,1.286,3.072,0.692,4.662,0.692c0.359,0,0.684,0.031,0.973,0.094
		s0.534,0.176,0.735,0.34s0.356,0.387,0.466,0.668S7,2.432,7,2.866v3.703H5.98V5.989z M5.98,5.063V3.786H5.271
		c-1.48,0-2.221,0.402-2.221,1.207c0,0.293,0.11,0.518,0.331,0.674s0.513,0.234,0.876,0.234c0.168,0,0.335-0.02,0.501-0.059
		s0.324-0.095,0.475-0.167s0.289-0.16,0.416-0.264S5.887,5.192,5.98,5.063z"/>
</g>
<path fill="#00539C" d="M3,10h1L2.5,8L1,10h0.391H2c0.252,2.244,2.139,4,4.449,4v-1C4.691,13,3.245,11.692,3,10z"/>
<path fill="#00539C" d="M12.449,5h-1l1.5,2l1.5-2h-0.391h-0.609C13.197,2.756,11.31,1,9,1v1C10.758,2,12.204,3.308,12.449,5z"/>
</svg>
