<?xml version="1.0" encoding="utf-8"?>
<!DOCTYPE svg PUBLIC "-//W3C//DTD SVG 1.1//EN" "http://www.w3.org/Graphics/SVG/1.1/DTD/svg11.dtd">
<svg version="1.1" id="Icon" xmlns="http://www.w3.org/2000/svg" xmlns:xlink="http://www.w3.org/1999/xlink" x="0px" y="0px"
	 width="16px" height="16px" viewBox="0 0 16 16" enable-background="new 0 0 16 16" xml:space="preserve">
<path fill="#414141" d="M13.002,12.058c-0.415-0.692-1.114-1.089-1.788-1.089c-0.288,0-0.571,0.072-0.826,0.225
	c-0.175,0.105-0.315,0.245-0.435,0.401l-6-10.549L3.78,2.39C3.71,2.926,3.83,3.469,4.118,3.925l5.477,8.676
	c-0.025,0.429,0.074,0.887,0.326,1.306c0.415,0.692,1.114,1.089,1.788,1.089c0.288,0,0.571-0.072,0.826-0.225
	C13.386,14.261,13.595,13.046,13.002,12.058z M12.226,14.257c-0.155,0.093-0.328,0.14-0.517,0.14c-0.483,0-0.983-0.313-1.274-0.798
	c-0.213-0.355-0.295-0.754-0.231-1.125c0.058-0.338,0.233-0.609,0.493-0.765c0.154-0.093,0.328-0.14,0.517-0.14
	c0.483,0,0.983,0.313,1.274,0.798c0.213,0.355,0.295,0.754,0.231,1.125C12.661,13.83,12.486,14.101,12.226,14.257z"/>
<path fill="#414141" d="M3.465,14.771c0.255,0.153,0.538,0.225,0.826,0.225c0.674,0,1.373-0.397,1.788-1.089
	c0.251-0.419,0.35-0.877,0.326-1.306l5.477-8.676C12.17,3.469,12.29,2.926,12.22,2.39l-0.174-1.344l-6,10.549
	c-0.119-0.156-0.26-0.297-0.435-0.401c-0.255-0.153-0.538-0.225-0.826-0.225c-0.674,0-1.373,0.397-1.788,1.089
	C2.405,13.046,2.614,14.261,3.465,14.771z M3.281,13.492c-0.064-0.371,0.018-0.77,0.231-1.125c0.291-0.485,0.791-0.798,1.274-0.798
	c0.189,0,0.363,0.047,0.517,0.14c0.259,0.156,0.434,0.427,0.493,0.765c0.064,0.371-0.018,0.77-0.231,1.125
	c-0.291,0.485-0.791,0.798-1.274,0.798c-0.189,0-0.362-0.047-0.517-0.14C3.514,14.101,3.339,13.83,3.281,13.492z"/>
</svg>
