<?xml version="1.0" encoding="utf-8"?>
<!DOCTYPE svg PUBLIC "-//W3C//DTD SVG 1.1//EN" "http://www.w3.org/Graphics/SVG/1.1/DTD/svg11.dtd">
<svg version="1.1" id="Icon" xmlns="http://www.w3.org/2000/svg" xmlns:xlink="http://www.w3.org/1999/xlink" x="0px" y="0px"
	 width="16px" height="16px" viewBox="0 0 16 16" enable-background="new 0 0 16 16" xml:space="preserve">
<g>
	<rect x="2" y="8" fill="#FFFFFF" width="6" height="7"/>
	<path fill="#414141" d="M7,9v5H3V9H7 M8,8H2v7h6V8L8,8z"/>
</g>
<path fill="#414141" d="M12,3h-1c0-1.105-0.895-2-2-2S7,1.895,7,3H6v1h1.277C7.624,4.595,8.262,5,9,5s1.376-0.405,1.723-1H12V3z
	 M9,4C8.449,4,8,3.551,8,3s0.449-1,1-1s1,0.449,1,1S9.551,4,9,4z"/>
<g>
	<polygon fill="#FFFFFF" points="9,14 13,14 13,5 5,5 5,7 9,7 	"/>
	<polygon fill="#414141" points="4,4 4,7 5,7 5,5 13,5 13,14 9,14 9,15 14,15 14,4 	"/>
	<polygon fill="none" points="9,7 5,7 4,7 2,7 2,15 4,15 9,15 9,14 	"/>
</g>
</svg>
