<?xml version="1.0" encoding="utf-8"?>
<!DOCTYPE svg PUBLIC "-//W3C//DTD SVG 1.1//EN" "http://www.w3.org/Graphics/SVG/1.1/DTD/svg11.dtd">
<svg version="1.1" id="Icon" xmlns="http://www.w3.org/2000/svg" xmlns:xlink="http://www.w3.org/1999/xlink" x="0px" y="0px"
	 width="16px" height="16px" viewBox="0 0 16 16" enable-background="new 0 0 16 16" xml:space="preserve">
<g>
	<path fill="#434343" d="M12.872,9.598L15,8.8V7.2l-2.031-0.635c-0.37-0.115-0.554-0.529-0.394-0.881l0.94-2.068l-1.131-1.131
		l-1.885,0.987c-0.343,0.18-0.766,0.018-0.902-0.344L8.8,1H7.2L6.565,3.031C6.45,3.4,6.037,3.585,5.684,3.425l-2.068-0.94
		L2.485,3.616l0.987,1.885c0.18,0.343,0.018,0.766-0.344,0.902L1,7.2v1.6l2.031,0.635C3.4,9.55,3.585,9.963,3.425,10.316
		l-0.94,2.068l1.131,1.131l1.885-0.987c0.343-0.18,0.766-0.018,0.902,0.344L7.2,15h1.6l0.635-2.031
		c0.115-0.37,0.529-0.554,0.881-0.394l2.068,0.94l1.131-1.131l-0.987-1.885C12.349,10.156,12.51,9.734,12.872,9.598z M8,11
		c-1.657,0-3-1.343-3-3s1.343-3,3-3s3,1.343,3,3S9.657,11,8,11z"/>
	<path fill="#FFFFFF" d="M8,5C6.343,5,5,6.343,5,8s1.343,3,3,3s3-1.343,3-3S9.657,5,8,5z M8,9.4C7.227,9.4,6.6,8.773,6.6,8
		S7.227,6.6,8,6.6S9.4,7.227,9.4,8S8.773,9.4,8,9.4z"/>
	<circle fill="#434343" cx="8" cy="8" r="1.4"/>
</g>
</svg>
