<?xml version="1.0" encoding="utf-8"?>
<!DOCTYPE svg PUBLIC "-//W3C//DTD SVG 1.1//EN" "http://www.w3.org/Graphics/SVG/1.1/DTD/svg11.dtd">
<svg version="1.1" id="Icon" xmlns="http://www.w3.org/2000/svg" xmlns:xlink="http://www.w3.org/1999/xlink" x="0px" y="0px"
	 width="16px" height="16px" viewBox="0 0 16 16" enable-background="new 0 0 16 16" xml:space="preserve">
<g>
	<path fill="#00539C" d="M2.091,7C2.571,4.173,5.041,2,8,2s5.429,2.173,5.909,5h2.021C15.433,3.068,12.061,0,8,0S0.567,3.068,0.07,7
		H2.091z"/>
	<path fill="#00539C" d="M13.909,9c-0.48,2.827-2.95,5-5.909,5s-5.429-2.173-5.909-5H0.07c0.497,3.932,3.869,7,7.93,7
		s7.433-3.068,7.93-7H13.909z"/>
</g>
<polygon fill="#00539C" points="16,7 12,7 16,3 "/>
<polygon fill="#00539C" points="0,13 0,9 4,9 "/>
<g>
	<path d="M7.462,8.696c-0.419-0.155-0.75-0.394-0.993-0.716C6.226,7.657,6.104,7.256,6.104,6.775c0-0.343,0.067-0.63,0.2-0.861
		c0.133-0.231,0.314-0.42,0.542-0.567c0.229-0.149,0.47-0.245,0.723-0.286C7.824,5.021,8.137,5,8.512,5H10.2v6.543H9.33V8.942H8.337
		l-2.074,2.602h-1.13L7.462,8.696z M7.104,7.439c0.061,0.17,0.153,0.316,0.279,0.439c0.141,0.138,0.311,0.229,0.51,0.272
		s0.423,0.066,0.672,0.066H9.33v-2.47H8.469c-0.243,0-0.447,0.017-0.611,0.05C7.694,5.832,7.55,5.889,7.427,5.971
		C7.286,6.065,7.182,6.186,7.115,6.333C7.048,6.482,7.014,6.651,7.014,6.841C7.014,7.07,7.044,7.269,7.104,7.439z"/>
</g>
</svg>
