<?xml version="1.0" encoding="utf-8"?>
<!DOCTYPE svg PUBLIC "-//W3C//DTD SVG 1.1//EN" "http://www.w3.org/Graphics/SVG/1.1/DTD/svg11.dtd">
<svg version="1.1" id="Icon" xmlns="http://www.w3.org/2000/svg" xmlns:xlink="http://www.w3.org/1999/xlink" x="0px" y="0px"
	 width="16px" height="16px" viewBox="0 0 16 16" enable-background="new 0 0 16 16" xml:space="preserve">
<path fill="#A6321B" d="M15,14L9.857,6.856L14,2V1L8.904,5.534L6.639,2.388c-0.386-0.536-1.06-0.783-1.7-0.622
	C4.361,1.91,3.91,2.361,3.765,2.939l-0.037,0.15C3.587,3.652,3.86,4.247,4.28,4.648l2.742,2.56l-5.18,4.608
	C1.561,12.066,1.4,12.425,1.4,12.801v0.215c0,0.728,0.59,1.319,1.319,1.319h0.149c0.385,0,0.751-0.168,1.002-0.461l4.564-5.35
	L14.3,14H15z"/>
</svg>
