<?xml version="1.0" encoding="utf-8"?>
<!DOCTYPE svg PUBLIC "-//W3C//DTD SVG 1.1//EN" "http://www.w3.org/Graphics/SVG/1.1/DTD/svg11.dtd">
<svg version="1.1" id="Icon" xmlns="http://www.w3.org/2000/svg" xmlns:xlink="http://www.w3.org/1999/xlink" x="0px" y="0px"
	 width="16px" height="16px" viewBox="0 0 16 16" enable-background="new 0 0 16 16" xml:space="preserve">
<g>
	<polygon fill="#424242" points="8,14 2,14 2,6 6.586,6 7.586,5 1,5 1,15 9,15 9,10.414 8,11.414 	"/>
	<polygon fill="#FFFFFF" points="2,14 8,14 8,11.414 7.707,11.707 7.414,12 7,12 5,12 4,12 4,11 4,9 4,8.586 4.293,8.293 6.586,6 
		2,6 	"/>
</g>
<rect x="11.793" y="2.086" transform="matrix(-0.7071 0.7071 -0.7071 -0.7071 23.8137 -2.864)" fill="#444444" width="1.414" height="2.828"/>
<polygon fill="#444444" points="5,11 5,9 7,11 "/>
<path fill="#444444" d="M4,3"/>
<rect x="7.586" y="4.172" transform="matrix(-0.7071 -0.7071 0.7071 -0.7071 10.4142 18.3137)" fill="#444444" width="2.828" height="5.657"/>
</svg>
