<?xml version="1.0" encoding="utf-8"?>
<!DOCTYPE svg PUBLIC "-//W3C//DTD SVG 1.1//EN" "http://www.w3.org/Graphics/SVG/1.1/DTD/svg11.dtd">
<svg version="1.1" id="Icon" xmlns="http://www.w3.org/2000/svg" xmlns:xlink="http://www.w3.org/1999/xlink" x="0px" y="0px"
	 width="16px" height="16px" viewBox="0 0 16 16" enable-background="new 0 0 16 16" xml:space="preserve">
<g>
	<path d="M8.152,9.793c-0.254,0.293-0.538,0.528-0.853,0.706s-0.63,0.267-0.946,0.267c-0.348,0-0.686-0.102-1.014-0.305
		s-0.595-0.516-0.8-0.938S4.232,8.639,4.232,8.135c0-0.621,0.159-1.243,0.478-1.866s0.714-1.091,1.187-1.403
		s0.932-0.469,1.377-0.469c0.34,0,0.664,0.089,0.973,0.267C8.555,4.841,8.82,5.111,9.043,5.475l0.199-0.908h1.049L9.447,8.498
		C9.33,9.045,9.271,9.348,9.271,9.406c0,0.105,0.04,0.196,0.12,0.272s0.177,0.114,0.29,0.114c0.207,0,0.479-0.119,0.814-0.357
		c0.445-0.313,0.798-0.731,1.058-1.257s0.39-1.067,0.39-1.626c0-0.652-0.167-1.262-0.501-1.828s-0.832-1.02-1.494-1.359
		s-1.394-0.51-2.194-0.51c-0.914,0-1.749,0.214-2.505,0.642s-1.342,1.041-1.758,1.84S2.867,6.992,2.867,7.906
		c0,0.957,0.208,1.781,0.624,2.473c0.416,0.691,1.018,1.202,1.805,1.532s1.659,0.495,2.616,0.495c1.023,0,1.881-0.172,2.572-0.516
		s1.209-0.762,1.553-1.254h1.061c-0.199,0.41-0.541,0.828-1.025,1.254s-1.061,0.763-1.729,1.011s-1.473,0.372-2.414,0.372
		c-0.867,0-1.667-0.111-2.399-0.334s-1.356-0.558-1.872-1.005s-0.904-0.962-1.166-1.544C2.164,9.652,2,8.855,2,8
		c0-0.953,0.195-1.861,0.586-2.725c0.477-1.059,1.153-1.869,2.03-2.432S6.557,2,7.807,2c0.969,0,1.839,0.198,2.61,0.595
		s1.38,0.987,1.825,1.772c0.379,0.676,0.568,1.41,0.568,2.203c0,1.133-0.398,2.139-1.195,3.018
		c-0.711,0.789-1.488,1.184-2.332,1.184c-0.27,0-0.487-0.041-0.653-0.123s-0.288-0.199-0.366-0.352
		C8.213,10.199,8.176,10.031,8.152,9.793z M5.316,8.205c0,0.535,0.127,0.951,0.381,1.248S6.242,9.898,6.57,9.898
		c0.219,0,0.449-0.065,0.691-0.196s0.474-0.325,0.694-0.583s0.401-0.585,0.542-0.981s0.211-0.794,0.211-1.192
		c0-0.531-0.132-0.943-0.396-1.236S7.729,5.27,7.35,5.27c-0.25,0-0.485,0.063-0.706,0.19S6.209,5.791,6.002,6.072
		S5.629,6.695,5.504,7.098S5.316,7.869,5.316,8.205z"/>
</g>
</svg>
