<?xml version="1.0" encoding="utf-8"?>
<!DOCTYPE svg PUBLIC "-//W3C//DTD SVG 1.1//EN" "http://www.w3.org/Graphics/SVG/1.1/DTD/svg11.dtd">
<svg version="1.1" id="Icon" xmlns="http://www.w3.org/2000/svg" xmlns:xlink="http://www.w3.org/1999/xlink" x="0px" y="0px"
	 width="16px" height="16px" viewBox="0 0 16 16" enable-background="new 0 0 16 16" xml:space="preserve">
<g>
	<polygon fill="#FFFFFF" points="5.934,4.5 7.268,2.5 14.5,2.5 14.5,4.5 	"/>
	<path fill="#DCB47A" d="M14,3v1H6.869l0.667-1H14 M14.5,2H7L5,5h10V2.5C15,2.224,14.776,2,14.5,2L14.5,2z"/>
</g>
<path fill="#DCB47A" d="M2,4C1.448,4,1,4.448,1,5v3.194v1.667V14c0,0.552,0.448,1,1,1h6.265H14c0.552,0,1-0.448,1-1V8.194V5
	c0-0.552-0.448-1-1-1H2z"/>
<path fill="#00539C" d="M11,9H8.707l1.621-1.621L9.621,6.672L8,8.293V6H7v2.293L5.379,6.672L4.672,7.379L6.293,9H4v1h2.293
	l-1.621,1.621l0.707,0.707L7,10.707V13h1v-2.293l1.621,1.621l0.707-0.707L8.707,10H11V9z M8,10H7V9h1V10z"/>
</svg>
