<?xml version="1.0" encoding="utf-8"?>
<!DOCTYPE svg PUBLIC "-//W3C//DTD SVG 1.1//EN" "http://www.w3.org/Graphics/SVG/1.1/DTD/svg11.dtd">
<svg version="1.1" id="Icon" xmlns="http://www.w3.org/2000/svg" xmlns:xlink="http://www.w3.org/1999/xlink" x="0px" y="0px"
	 width="16px" height="16px" viewBox="0 0 16 16" enable-background="new 0 0 16 16" xml:space="preserve">
<circle fill="#00539C" cx="8.001" cy="8" r="7"/>
<path fill="#FFFFFF" stroke="#FFFFFF" stroke-width="0.1" stroke-miterlimit="10" d="M7.465,10c0-0.293,0.016-0.547,0.048-0.762
	c0.031-0.216,0.081-0.41,0.149-0.581c0.067-0.172,0.153-0.325,0.257-0.46s0.229-0.271,0.378-0.406l0.406-0.362
	C8.847,7.297,8.974,7.178,9.084,7.07c0.109-0.108,0.2-0.214,0.272-0.317c0.072-0.104,0.126-0.214,0.162-0.33
	c0.036-0.117,0.054-0.249,0.054-0.397c0-0.203-0.034-0.389-0.102-0.559S9.306,5.154,9.179,5.036S8.899,4.825,8.722,4.76
	C8.544,4.694,8.348,4.661,8.131,4.661c-0.439,0-0.787,0.125-1.041,0.375S6.672,5.493,6.596,5.98H5.243
	c0.03-0.398,0.122-0.596,0.276-0.916c0.154-0.32,0.359-0.589,0.615-0.81s0.554-0.389,0.893-0.508
	c0.338-0.119,0.706-0.178,1.104-0.178c0.42,0,0.805,0.057,1.156,0.171c0.351,0.114,0.653,0.275,0.907,0.482s0.452,0.459,0.594,0.755
	S11,5.603,11,5.962c0,0.199-0.02,0.386-0.06,0.562C10.9,6.7,10.836,6.871,10.746,7.038c-0.088,0.167-0.205,0.333-0.349,0.499
	s-0.319,0.332-0.526,0.501c-0.221,0.182-0.4,0.337-0.54,0.467c-0.14,0.129-0.251,0.26-0.333,0.394
	c-0.083,0.133-0.141,0.283-0.175,0.45S8.771,9.732,8.766,10H7.465z"/>
<rect x="7.513" y="11" fill="#FFFFFF" stroke="#FFFFFF" stroke-width="0.1" stroke-miterlimit="10" width="1.467" height="1.377"/>
</svg>
