<?xml version="1.0" encoding="utf-8"?>
<!DOCTYPE svg PUBLIC "-//W3C//DTD SVG 1.1//EN" "http://www.w3.org/Graphics/SVG/1.1/DTD/svg11.dtd">
<svg version="1.1" id="Icon" xmlns="http://www.w3.org/2000/svg" xmlns:xlink="http://www.w3.org/1999/xlink" x="0px" y="0px"
	 width="16px" height="16px" viewBox="0 0 16 16" enable-background="new 0 0 16 16" xml:space="preserve">
<g>
	<path d="M4.9804688,10.3049383c-0.5351563,0.4804688-1.2070313,0.7207031-2.015625,0.7207031
		c-0.2773438,0-0.5341797-0.0400391-0.7705078-0.1201172s-0.4423828-0.1923828-0.6181641-0.3369141
		s-0.3134766-0.3183594-0.4130859-0.5214844S1.0136719,9.6174383,1.0136719,9.3674383
		c0-1.34375,1.1542969-2.0156255,3.4628906-2.0156255h0.5039063c0-0.2460938-0.0078125-0.4648438-0.0234375-0.65625
		S4.890625,6.3430238,4.8046875,6.2121644S4.5820313,5.9816957,4.3945313,5.9133363S3.9433594,5.8107972,3.6035156,5.8107972
		c-0.90625,0-1.375,0.3261719-1.40625,0.9785156h-1.03125c0.0742188-1.1875,0.90625-1.7636719,2.4960938-1.7636719
		c0.359375,0,0.6835938,0.0136719,0.9726563,0.0761719s0.5341797,0.1757813,0.7353516,0.3398438
		s0.3564453,0.3867188,0.4658203,0.6679688S6,6.7482972,6,7.181891v3.8349614H4.9804688V10.3049383z M4.9804688,9.3791571V8.1018133
		H4.2714844c-1.4804688,0-2.2207031,0.4023438-2.2207031,1.2070313c0,0.2929688,0.1103516,0.5175781,0.3310547,0.6738281
		s0.5126953,0.234375,0.8759766,0.234375c0.1679688,0,0.3349609-0.0195313,0.5009766-0.0585938
		s0.3242188-0.0947266,0.4746094-0.1669922s0.2890625-0.1601563,0.4160156-0.2636719S4.8867188,9.5080633,4.9804688,9.3791571z"/>
</g>
<g>
	<rect x="7" y="2" fill="#414141" width="1" height="12"/>
	<rect x="5" y="1" fill="#414141" width="2" height="1"/>
	<rect x="8" y="1" fill="#414141" width="2" height="1"/>
	<rect x="8" y="14" fill="#414141" width="2" height="1"/>
	<rect x="5" y="14" fill="#414141" width="2" height="1"/>
</g>
<g>
	<path d="M11.8544922,10.9863281c-0.4179688,0-0.7988281-0.0673828-1.1425781-0.2021484s-0.6386719-0.3310547-0.8847656-0.5888672
		S9.390625,9.6220703,9.2558594,9.2490234C9.1210938,8.8764648,9.0537109,8.4516602,9.0537109,7.9750977
		c0-0.46875,0.0654297-0.8886719,0.1962891-1.2597656s0.3154297-0.6855469,0.5537109-0.9433594
		S10.3261719,5.315918,10.65625,5.1772461s0.6943359-0.2080078,1.0927734-0.2080078
		c0.4140625,0,0.7871094,0.0683594,1.1191406,0.2050781s0.6152344,0.3339844,0.8496094,0.5917969
		s0.4140625,0.5722656,0.5390625,0.9433594s0.1875,0.7929688,0.1875,1.265625v0.2460938h-4.3242188
		c0.0234375,0.3320313,0.0830078,0.6210938,0.1787109,0.8666992c0.0957031,0.2460938,0.2197266,0.4492188,0.3720703,0.609375
		S11,9.9775391,11.2011719,10.0576172s0.4189453,0.1201172,0.6533203,0.1201172
		c0.1679688,0,0.3359375-0.0224609,0.5039063-0.0673828S12.6777344,9.9990234,12.8125,9.9111328
		s0.2441406-0.1972656,0.328125-0.328125s0.1279297-0.2802734,0.1318359-0.4482422h1.0722656
		c-0.0429688,0.296875-0.1357422,0.5605469-0.2783203,0.7910156s-0.3232422,0.4238281-0.5419922,0.5800781
		s-0.4707031,0.2753906-0.7558594,0.3574219S12.1787109,10.9863281,11.8544922,10.9863281z M13.3662109,7.418457
		c-0.0429688-0.2734375-0.1113281-0.5126953-0.2050781-0.7177734s-0.2109375-0.3759766-0.3515625-0.5126953
		s-0.3007813-0.2402344-0.4804688-0.3105469s-0.3730469-0.1054688-0.5800781-0.1054688S11.3496094,5.8051758,11.171875,5.871582
		s-0.3369141,0.1679688-0.4775391,0.3046875s-0.2597656,0.3085938-0.3574219,0.515625s-0.1660156,0.4492188-0.2050781,0.7265625
		H13.3662109z"/>
</g>
</svg>
