<?xml version="1.0" encoding="utf-8"?>
<!DOCTYPE svg PUBLIC "-//W3C//DTD SVG 1.1//EN" "http://www.w3.org/Graphics/SVG/1.1/DTD/svg11.dtd">
<svg version="1.1" id="Icon" xmlns="http://www.w3.org/2000/svg" xmlns:xlink="http://www.w3.org/1999/xlink" x="0px" y="0px"
	 width="16px" height="16px" viewBox="0 0 16 16" enable-background="new 0 0 16 16" xml:space="preserve">
<g>
	<g>
		<polygon fill="#FFFFFF" points="3,15 3,1 11.2929688,1 14,3.7070313 14,15 		"/>
		<path fill="#FFFFFF" d="M11.0857801,1.5L13.5,3.9142201V14.5h-10v-13H11.0857801 M11.5,0.5h-9v15h12v-12L11.5,0.5L11.5,0.5z"/>
	</g>
</g>
<g>
	<polygon fill="none" points="12,3 13.293457,3 12,1.706543 	"/>
	<polygon fill="none" points="11,1 3,1 3,15 14,15 14,4 11,4 	"/>
	<path fill="#424242" d="M11.7075195,0H2v16h13V3.2924805L11.7075195,0z M13.293457,3H12V1.706543L13.293457,3z M14,15H3V1h8v3h3V15
		z"/>
</g>
<polygon fill="#00539C" points="12,8 8.5,4 5,8 "/>
<polygon fill="#00539C" points="7,7 7,8 7,9 10,9 10,8 10,7 "/>
<rect x="7" y="12" fill="#00539C" width="3" height="1"/>
<rect x="7" y="10" fill="#00539C" width="3" height="1"/>
</svg>
