<?xml version="1.0" encoding="utf-8"?>
<!DOCTYPE svg PUBLIC "-//W3C//DTD SVG 1.1//EN" "http://www.w3.org/Graphics/SVG/1.1/DTD/svg11.dtd">
<svg version="1.1" id="Icon" xmlns="http://www.w3.org/2000/svg" xmlns:xlink="http://www.w3.org/1999/xlink" x="0px" y="0px"
	 width="16px" height="16px" viewBox="0 0 16 16" enable-background="new 0 0 16 16" xml:space="preserve">
<g>
	<line fill="#FFFFFF" x1="7" y1="16" x2="-1" y2="16"/>
</g>
<g>
	<polygon fill="#FFFFFF" points="2.5,12.5 2.5,8.5 5.5,8.5 5.5,9.5 6.5,9.5 6.5,12.5 	"/>
	<path fill="#444444" d="M5,9v1h1v2H3V9H5 M6,8H2v5h5V9H6V8L6,8z"/>
</g>
<g>
	<polygon fill="#FFFFFF" points="9.5,12.5 9.5,8.5 12.5,8.5 12.5,9.5 13.5,9.5 13.5,12.5 	"/>
	<path fill="#444444" d="M12,9v1h1v2h-3V9H12 M13,8H9v5h5V9h-1V8L13,8z"/>
</g>
<g>
	<polygon fill="#FFFFFF" points="2.5,6.5 2.5,2.5 5.5,2.5 5.5,3.5 6.5,3.5 6.5,6.5 	"/>
	<path fill="#444444" d="M5,3v1h1v2H3V3H5 M6,2H2v5h5V3H6V2L6,2z"/>
</g>
<g>
	<polygon fill="#FFFFFF" points="9.5,6.5 9.5,2.5 12.5,2.5 12.5,3.5 13.5,3.5 13.5,6.5 	"/>
	<path fill="#444444" d="M12,3v1h1v2h-3V3H12 M13,2H9v5h5V3h-1V2L13,2z"/>
</g>
</svg>
