<?xml version="1.0" encoding="utf-8"?>
<!DOCTYPE svg PUBLIC "-//W3C//DTD SVG 1.1//EN" "http://www.w3.org/Graphics/SVG/1.1/DTD/svg11.dtd">
<svg version="1.1" id="Icon" xmlns="http://www.w3.org/2000/svg" xmlns:xlink="http://www.w3.org/1999/xlink" x="0px" y="0px"
	 width="16px" height="16px" viewBox="0 0 16 16" enable-background="new 0 0 16 16" xml:space="preserve">
<polygon fill="#00529C" points="14,10 14,2 13,2 13,10 11,10 12.25,12 13.5,14 14.75,12 16,10 "/>
<g>
	<path fill="#414141" d="M5.5,2C2.462,2,0,4.462,0,7.5C0,10.538,2.462,13,5.5,13S11,10.538,11,7.5C11,4.462,8.538,2,5.5,2z M5.5,12
		C3.015,12,1,9.985,1,7.5S3.015,3,5.5,3S10,5.015,10,7.5S7.985,12,5.5,12z"/>
	<path fill="#FFFFFF" d="M5.5,3C3.015,3,1,5.015,1,7.5S3.015,12,5.5,12S10,9.985,10,7.5S7.985,3,5.5,3z M7.934,8H6H5.734H5V7.5V7
		V3.958c0-0.276,0.224-0.5,0.5-0.5S6,3.682,6,3.958V7h1.934c0.276,0,0.5,0.224,0.5,0.5C8.434,7.776,8.21,8,7.934,8z"/>
	<path fill="#414141" d="M7.934,7H6V3.958c0-0.276-0.224-0.5-0.5-0.5S5,3.682,5,3.958V7v0.5V8h0.734H6h1.934
		c0.276,0,0.5-0.224,0.5-0.5C8.434,7.224,8.21,7,7.934,7z"/>
</g>
</svg>
