<?xml version="1.0" encoding="utf-8"?>
<!DOCTYPE svg PUBLIC "-//W3C//DTD SVG 1.1//EN" "http://www.w3.org/Graphics/SVG/1.1/DTD/svg11.dtd">
<svg version="1.1" id="Icon" xmlns="http://www.w3.org/2000/svg" xmlns:xlink="http://www.w3.org/1999/xlink" x="0px" y="0px"
	 width="16px" height="16px" viewBox="0 0 16 16" enable-background="new 0 0 16 16" xml:space="preserve">
<g>
	<path d="M9,15H4v-1l3.635-4H4V9h5v1.125L5.365,14H9V15z"/>
</g>
<circle cx="2" cy="6" r="1"/>
<circle cx="2" cy="14" r="1"/>
<polygon fill="#00529C" points="14,10 14,2 13,2 13,10 11,10 12.25,12 13.5,14 14.75,12 16,10 "/>
<path d="M8.829,2.084C8.72,1.803,8.564,1.58,8.363,1.416s-0.446-0.277-0.735-0.34S7.015,1,6.655,1C5.065,1,4.074,1.576,4,2.764h1
	c0.031-0.652,0.69-0.979,1.597-0.979c0.34,0,0.604,0.034,0.791,0.103s0.324,0.168,0.41,0.299S7.935,2.479,7.95,2.67
	s0.023,0.41,0.023,0.656H7.47c-2.309,0-3.463,0.672-3.463,2.016c0,0.25,0.05,0.477,0.149,0.68s0.237,0.377,0.413,0.521
	S4.951,6.8,5.188,6.88S5.681,7,5.958,7c0.809,0,1.48-0.24,2.016-0.721v0.712h1.02V3.156C8.993,2.723,8.938,2.365,8.829,2.084z
	 M8,5.354C7.906,5.482,7.77,5.599,7.643,5.702S7.377,5.894,7.227,5.966S6.918,6.094,6.752,6.133S6.419,6.191,6.251,6.191
	c-0.363,0-0.655-0.078-0.876-0.234S5.044,5.576,5.044,5.283c0-0.805,0.74-1.207,2.221-1.207H8V5.354z"/>
</svg>
