<?xml version="1.0" encoding="utf-8"?>
<!DOCTYPE svg PUBLIC "-//W3C//DTD SVG 1.1//EN" "http://www.w3.org/Graphics/SVG/1.1/DTD/svg11.dtd">
<svg version="1.1" id="Icon" xmlns="http://www.w3.org/2000/svg" xmlns:xlink="http://www.w3.org/1999/xlink" x="0px" y="0px"
	 width="16px" height="16px" viewBox="0 0 16 16" enable-background="new 0 0 16 16" xml:space="preserve">
<g>
	<path d="M6,15H1v-1l3.635-4H1V9h5v1.125L2.365,14H6V15z"/>
</g>
<circle cx="8" cy="6" r="1"/>
<circle cx="8" cy="14" r="1"/>
<polygon fill="#00529C" points="14,10 14,2 13,2 13,10 11,10 12.25,12 13.5,14 14.75,12 16,10 "/>
<g>
	<path d="M4.98,6.279C4.445,6.76,3.773,7,2.965,7C2.688,7,2.431,6.96,2.194,6.88S1.752,6.688,1.576,6.543S1.263,6.225,1.163,6.021
		s-0.149-0.43-0.149-0.68c0-1.344,1.154-2.016,3.463-2.016H4.98c0-0.246-0.008-0.465-0.023-0.656S4.891,2.317,4.805,2.187
		s-0.223-0.23-0.41-0.299S3.943,1.785,3.604,1.785c-0.906,0-1.375,0.326-1.406,0.979H1.166C1.24,1.576,2.072,1,3.662,1
		c0.359,0,0.684,0.014,0.973,0.076s0.534,0.176,0.735,0.34s0.356,0.387,0.466,0.668S6,2.723,6,3.156v3.835H4.98V6.279z M4.98,5.354
		V4.076H4.271c-1.48,0-2.221,0.402-2.221,1.207c0,0.293,0.11,0.518,0.331,0.674s0.513,0.234,0.876,0.234
		c0.168,0,0.335-0.02,0.501-0.059s0.324-0.095,0.475-0.167s0.289-0.16,0.416-0.264S4.887,5.482,4.98,5.354z"/>
</g>
</svg>
