<?xml version="1.0" encoding="utf-8"?>
<!DOCTYPE svg PUBLIC "-//W3C//DTD SVG 1.1//EN" "http://www.w3.org/Graphics/SVG/1.1/DTD/svg11.dtd">
<svg version="1.1" id="Icon" xmlns="http://www.w3.org/2000/svg" xmlns:xlink="http://www.w3.org/1999/xlink" x="0px" y="0px"
	 width="16px" height="16px" viewBox="0 0 16 16" enable-background="new 0 0 16 16" xml:space="preserve">
<path fill="#424242" d="M8,1H7H1v8h6h1l4-4L8,1z M9,6C8.448,6,8,5.552,8,5s0.448-1,1-1s1,0.448,1,1S9.552,6,9,6z"/>
<polygon fill="#00529C" points="14,10.021 14,4 14,3 14,2 13,2 13,3 13,4 13,10.021 11,10.021 12.25,12.021 13.5,14.021 
	14.75,12.021 16,10.021 "/>
</svg>
