<?xml version="1.0" encoding="utf-8"?>
<!DOCTYPE svg PUBLIC "-//W3C//DTD SVG 1.1//EN" "http://www.w3.org/Graphics/SVG/1.1/DTD/svg11.dtd">
<svg version="1.1" id="Icon" xmlns="http://www.w3.org/2000/svg" xmlns:xlink="http://www.w3.org/1999/xlink" x="0px" y="0px"
	 width="16px" height="16px" viewBox="0 0 16 16" enable-background="new 0 0 16 16" xml:space="preserve">
<g id="var1">
	<path fill="#444444" d="M14.5,10h-13C1.2238576,10,1,9.7761421,1,9.5v-1C1,8.2238579,1.2238576,8,1.5,8h13
		C14.7761421,8,15,8.2238579,15,8.5v1C15,9.7761421,14.7761421,10,14.5,10z"/>
	<path fill="#444444" d="M14.5,6h-13C1.2238576,6,1,5.7761426,1,5.5v-1C1,4.2238574,1.2238576,4,1.5,4h13
		C14.7761421,4,15,4.2238574,15,4.5v1C15,5.7761426,14.7761421,6,14.5,6z"/>
	<path fill="#444444" d="M14.5,14h-13C1.2238576,14,1,13.7761421,1,13.5v-1C1,12.2238579,1.2238576,12,1.5,12h13
		c0.2761421,0,0.5,0.2238579,0.5,0.5v1C15,13.7761421,14.7761421,14,14.5,14z"/>
</g>
</svg>
