<?xml version="1.0" encoding="utf-8"?>
<!DOCTYPE svg PUBLIC "-//W3C//DTD SVG 1.1//EN" "http://www.w3.org/Graphics/SVG/1.1/DTD/svg11.dtd">
<svg version="1.1" id="Layer_1" xmlns="http://www.w3.org/2000/svg" xmlns:xlink="http://www.w3.org/1999/xlink" x="0px" y="0px"
	 width="16px" height="16px" viewBox="0 0 16 16" enable-background="new 0 0 16 16" xml:space="preserve">
<g>
	<path fill="#424242" d="M1,1v10h8V1H1z M8,10H2V2h6V10z"/>
	<rect x="2" y="2" fill="#FFFFFF" width="6" height="8"/>
</g>
<g>
	<path fill="#00539C" d="M15,14.2929688l-4.059021-4.059021c0.4372559-0.5841675,0.7055054-1.3016968,0.7055054-2.0874634
		c0-1.9330444-1.5670166-3.5-3.5-3.5s-3.5,1.5669556-3.5,3.5c0,1.9329834,1.5670166,3.5,3.5,3.5
		c0.7857666,0,1.5032959-0.2682495,2.0874634-0.7055054L14.2929688,15L15,14.2929688z M8.1464844,5.6466064
		c1.378418,0,2.4998779,1.1213989,2.4998779,2.4998779c0,1.378418-1.12146,2.4998779-2.4998779,2.4998779
		s-2.4998779-1.12146-2.4998779-2.4998779C5.6466064,6.7680054,6.7680664,5.6466064,8.1464844,5.6466064z"/>
	<circle fill="#FFFFFF" cx="8.1464844" cy="8.1464844" r="2.4998779"/>
</g>
</svg>
